<svg width="113.000000" height="103.000000" viewBox="0 0 113 103" fill="none" xmlns="http://www.w3.org/2000/svg" xmlns:xlink="http://www.w3.org/1999/xlink">
	<desc>
			Created with Pixso.
	</desc>
	<defs>
		<clipPath id="clip10_4">
			<rect id="svg" width="113.000000" height="103.000000" fill="white" fill-opacity="0"/>
		</clipPath>
	</defs>
	<g clip-path="url(#clip10_4)">
		<path id="path" d="M81.67 35.7L88.2 60.29L88.25 60.51L88.46 60.61L111.38 71.67L86.79 78.2L86.56 78.25L86.46 78.46L75.41 101.38L68.88 76.79L68.82 76.56L68.62 76.46L45.7 65.41L70.29 58.88L70.51 58.82L70.61 58.62L81.67 35.7Z" fill="#000000" fill-opacity="0" fill-rule="nonzero"/>
		<path id="path" d="M88.2 60.29L88.25 60.51L88.46 60.61L111.38 71.67L86.79 78.2L86.56 78.25L86.46 78.46L75.41 101.38L68.88 76.79L68.82 76.56L68.62 76.46L45.7 65.41L70.29 58.88L70.51 58.82L70.61 58.62L81.67 35.7L88.2 60.29Z" stroke="#BCEC30" stroke-opacity="1.000000" stroke-width="1.000000"/>
		<path id="path" d="M19.59 1.59L22.41 13.59L22.46 13.81L22.67 13.92L33.61 19.59L21.61 22.41L21.39 22.46L21.28 22.67L15.61 33.61L12.79 21.61L12.74 21.39L12.54 21.28L1.59 15.61L13.59 12.79L13.81 12.74L13.92 12.54L19.59 1.59Z" fill="#000000" fill-opacity="0" fill-rule="nonzero"/>
		<path id="path" d="M22.41 13.59L22.46 13.81L22.67 13.92L33.61 19.59L21.61 22.41L21.39 22.46L21.28 22.67L15.61 33.61L12.79 21.61L12.74 21.39L12.54 21.28L1.59 15.61L13.59 12.79L13.81 12.74L13.92 12.54L19.59 1.59L22.41 13.59Z" stroke="#BCEC30" stroke-opacity="1.000000" stroke-width="1.000000"/>
	</g>
</svg>
