<svg width="139.000000" height="89.000000" viewBox="0 0 139 89" fill="none" xmlns="http://www.w3.org/2000/svg" xmlns:xlink="http://www.w3.org/1999/xlink">
	<desc>
			Created with Pixso.
	</desc>
	<defs>
		<clipPath id="clip10_7">
			<rect id="svg" width="139.000000" height="89.000000" fill="white" fill-opacity="0"/>
		</clipPath>
	</defs>
	<g clip-path="url(#clip10_7)">
		<path id="path" d="M104.5 1.44L113.34 25.35L113.42 25.57L113.64 25.65L137.55 34.5L113.64 43.34L113.42 43.42L113.34 43.64L104.5 67.55L95.65 43.64L95.57 43.42L95.35 43.34L71.44 34.5L95.35 25.65L95.57 25.57L95.65 25.35L104.5 1.44Z" fill="#000000" fill-opacity="0" fill-rule="nonzero"/>
		<path id="path" d="M113.34 25.35L113.42 25.57L113.64 25.65L137.55 34.5L113.64 43.34L113.42 43.42L113.34 43.64L104.5 67.55L95.65 43.64L95.57 43.42L95.35 43.34L71.44 34.5L95.35 25.65L95.57 25.57L95.65 25.35L104.5 1.44L113.34 25.35Z" stroke="#BCEC30" stroke-opacity="1.000000" stroke-width="1.000000"/>
		<path id="path" d="M20.5 49.44L25.56 63.13L25.64 63.35L25.86 63.43L39.55 68.5L25.86 73.56L25.64 73.64L25.56 73.86L20.5 87.55L15.43 73.86L15.35 73.64L15.13 73.56L1.44 68.5L15.13 63.43L15.35 63.35L15.43 63.13L20.5 49.44Z" fill="#000000" fill-opacity="0" fill-rule="nonzero"/>
		<path id="path" d="M25.56 63.13L25.64 63.35L25.86 63.43L39.55 68.5L25.86 73.56L25.64 73.64L25.56 73.86L20.5 87.55L15.43 73.86L15.35 73.64L15.13 73.56L1.44 68.5L15.13 63.43L15.35 63.35L15.43 63.13L20.5 49.44L25.56 63.13Z" stroke="#BCEC30" stroke-opacity="1.000000" stroke-width="1.000000"/>
	</g>
</svg>
